<svg xmlns="http://www.w3.org/2000/svg" version="1.1" xmlns:xlink="http://www.w3.org/1999/xlink" xmlns:svgjs="http://svgjs.dev/svgjs" width="1000" height="1000" viewBox="0 0 1000 1000"><rect width="1000" height="1000" fill="#ffffff"></rect><g transform="matrix(0.7,0,0,0.7,149.57576480476365,424.78508514299006)"><svg viewBox="0 0 396 85" data-background-color="#ffffff" preserveAspectRatio="xMidYMid meet" height="214" width="1000" xmlns="http://www.w3.org/2000/svg" xmlns:xlink="http://www.w3.org/1999/xlink"><g id="tight-bounds" transform="matrix(1,0,0,1,0.23999601694674766,0.17869000564652993)"><svg viewBox="0 0 395.52 84.64261998870694" height="84.64261998870694" width="395.52"><g><svg viewBox="0 0 395.52 84.64261998870694" height="84.64261998870694" width="395.52"><g><svg viewBox="0 0 395.52 84.64261998870694" height="84.64261998870694" width="395.52"><g><svg viewBox="0 0 395.52 84.64261998870694" height="84.64261998870694" width="395.52"><g><svg viewBox="0 0 395.52 84.64261998870694" height="84.64261998870694" width="395.52"><g transform="matrix(1,0,0,1,0,0)"><svg width="395.52" viewBox="1.7000000476837158 -37.5 177.08999633789062 37.900001525878906" height="84.64261998870694" data-palette-color="#010c80"><g class="undefined-text-0" data-fill-palette-color="primary" id="text-0"><path d="M5.55-3.85L5.55-32.95 1.9-33.65 1.9-37.15 9.7-37.15Q11.35-37.15 14.15-37.35L14.15-37.35Q14.8-37.4 16.13-37.45 17.45-37.5 18.5-37.5L18.5-37.5Q27.6-37.5 32.2-32.95 36.8-28.4 36.8-19.9L36.8-19.9Q36.8-14.05 34.55-9.45 32.3-4.85 28.1-2.23 23.9 0.4 18.2 0.4L18.2 0.4Q16.65 0.4 13.55 0.2L13.55 0.2Q10.65 0 9.8 0L9.8 0 1.7 0 1.7-3.3 5.55-3.85ZM14-3.7Q15.75-3.15 18-3.25L18-3.25Q22.5-3.3 24.98-7.08 27.45-10.85 27.45-18.65L27.45-18.65Q27.45-25.85 25.03-29.93 22.6-34 17.4-34L17.4-34Q16.2-34 15.25-33.85 14.3-33.7 14-33.65L14-33.65 14-3.7ZM40.1-3.85L51.25-37.3 60.25-37.3 71.45-3.8 74.2-3.3 74.2 0 58.45 0 58.45-3.3 62-3.8 60.3-9.8 48.35-9.8 46.65-3.75 50.55-3.3 50.55 0 37.25 0 37.2-3.3 40.1-3.85ZM59.25-13.65L54.95-28.6 54.2-32.1 53.4-28.55 49.35-13.65 59.25-13.65ZM87.34-3.85L87.34-33.45 81.09-33.2 79-22.05 74.3-22.05 75.09-37.15 108.05-37.15 108.7-22.05 104.25-22.05 102.05-33.2 96-33.45 96-3.85 102.95-3.3 102.95 0 81 0 81-3.3 87.34-3.85ZM115.29-3.8L115.29-32.95 111.39-33.65 111.39-37.15 138.74-37.15 139.39-28.3 135.44-28.3 133.69-33.35 123.84-33.85 123.84-20.85 129.94-21 130.84-25.1 134.29-25.1 134.29-12.55 130.84-12.55 129.99-16.9 123.84-17.05 123.84-3.45 134.79-4.15 137.84-10.6 142.09-9.4 140.89 0 111.44 0 111.44-3.3 115.29-3.8ZM146.99-3.8L156.54-17.9 146.49-32.95 143.19-33.65 143.19-37.15 160.39-37.15 160.39-33.65 156.49-32.9 162.74-22.45 169.29-32.95 165.09-33.65 165.09-37.15 178.24-37.15 178.24-33.65 174.19-32.95 164.74-19.95 175.49-3.85 178.79-3.3 178.79 0 161.64 0 161.64-3.3 165.54-3.85 158.64-15.25 152.04-3.8 156.69-3.3 156.69 0 142.89 0 142.89-3.3 146.99-3.8Z" fill="#010c80" data-fill-palette-color="primary"></path></g></svg></g></svg></g></svg></g></svg></g></svg></g><defs></defs></svg><rect width="395.52" height="84.64261998870694" fill="none" stroke="none" visibility="hidden"></rect></g></svg></g></svg>